<svg width="28" height="28" viewBox="0 0 28 28" fill="none" xmlns="http://www.w3.org/2000/svg">
<path d="M23.0233 4.37473H10.791C10.2004 4.37473 9.72157 4.85354 9.72157 5.44417C9.72157 6.03481 10.2004 6.51362 10.791 6.51362H23.0233C23.3712 6.51362 23.6525 6.65086 23.8671 6.92535C24.081 7.19913 24.1459 7.50499 24.0618 7.84294L21.9229 16.3985C21.863 16.6359 21.7364 16.8302 21.5432 16.9813C21.35 17.1325 21.1304 17.2081 20.8844 17.2081H9.37293C9.11413 17.2081 8.88562 17.125 8.68742 16.9589C8.48779 16.7928 8.36552 16.5821 8.3206 16.3268L6.27796 4.88058C6.14036 4.11557 5.77318 3.48353 5.17643 2.98445C4.58182 2.48538 3.89595 2.23584 3.11882 2.23584H2.23546C1.64482 2.23584 1.16602 2.71465 1.16602 3.30528C1.16602 3.89592 1.64482 4.37473 2.23546 4.37473H3.11882C3.37763 4.37473 3.60613 4.45779 3.80434 4.62391C4.00397 4.79074 4.12624 5.00142 4.17115 5.25595L6.21379 16.7022C6.35068 17.4679 6.71715 18.1 7.31318 18.5983C7.90851 19.0974 8.59473 19.347 9.37186 19.347H20.8834C21.6199 19.347 22.2783 19.1206 22.8586 18.6679C23.439 18.2144 23.8183 17.6308 23.9965 16.9172L26.1354 8.36162C26.3885 7.34921 26.1939 6.43163 25.5515 5.60887C24.9105 4.78611 24.0678 4.37473 23.0233 4.37473Z" fill="#222222"/>
<path d="M6.51465 22.5554C6.51465 23.1227 6.74 23.6667 7.14111 24.0678C7.54223 24.4689 8.08627 24.6943 8.65354 24.6943C9.22081 24.6943 9.76484 24.4689 10.166 24.0678C10.5671 23.6667 10.7924 23.1227 10.7924 22.5554C10.7924 21.9881 10.5671 21.4441 10.166 21.043C9.76484 20.6418 9.22081 20.4165 8.65354 20.4165C8.08627 20.4165 7.54223 20.6418 7.14111 21.043C6.74 21.4441 6.51465 21.9881 6.51465 22.5554Z" fill="#222222"/>
<path d="M19.3477 22.5554C19.3477 23.1227 19.573 23.6667 19.9741 24.0678C20.3752 24.4689 20.9193 24.6943 21.4865 24.6943C22.0538 24.6943 22.5978 24.4689 22.999 24.0678C23.4001 23.6667 23.6254 23.1227 23.6254 22.5554C23.6254 21.9881 23.4001 21.4441 22.999 21.043C22.5978 20.6418 22.0538 20.4165 21.4865 20.4165C20.9193 20.4165 20.3752 20.6418 19.9741 21.043C19.573 21.4441 19.3477 21.9881 19.3477 22.5554Z" fill="#222222"/>
</svg>
