<svg width="28" height="28" viewBox="0 0 28 28" fill="none" xmlns="http://www.w3.org/2000/svg">
<path d="M14.0005 13.183C12.5562 13.183 11.1963 12.618 10.1741 11.5931C9.15185 10.5683 8.58827 9.2049 8.58827 7.75686C8.58827 6.30883 9.15185 4.94771 10.1741 3.92288C11.1963 2.89804 12.5562 2.33301 14.0005 2.33301C15.4448 2.33301 16.8047 2.89804 17.8269 3.92288C18.8491 4.94771 19.4127 6.31111 19.4127 7.75915C19.4127 9.20719 18.8491 10.5706 17.8269 11.5954C16.8047 12.6203 15.4448 13.183 14.0005 13.183ZM14.0005 4.16307C12.0222 4.16307 10.4136 5.77582 10.4136 7.75915C10.4136 9.74249 12.0222 11.3552 14.0005 11.3552C15.9787 11.3552 17.5873 9.74249 17.5873 7.75915C17.5873 5.77582 15.9787 4.16307 14.0005 4.16307ZM22.4223 25.6663C21.918 25.6663 21.5096 25.2569 21.5096 24.7513V20.0206C21.5096 18.0029 19.8713 16.3605 17.8589 16.3605H10.1421C8.12965 16.3605 6.49138 18.0029 6.49138 20.0206V24.7513C6.49138 25.2569 6.08296 25.6663 5.5787 25.6663C5.07444 25.6663 4.66602 25.2569 4.66602 24.7513V20.0206C4.66602 18.5543 5.23644 17.1748 6.27006 16.1386C7.30367 15.1023 8.67954 14.5304 10.1421 14.5304H17.8566C19.3191 14.5304 20.695 15.1023 21.7286 16.1386C22.7622 17.1748 23.3327 18.5543 23.3327 20.0206V24.7513C23.335 25.2569 22.9265 25.6663 22.4223 25.6663Z" fill="#222222" stroke="#222222" stroke-width="0.583333"/>
</svg>
