<svg width="28" height="28" viewBox="0 0 28 28" fill="none" xmlns="http://www.w3.org/2000/svg">
<path d="M25.3557 23.8072L21.015 19.5416C24.6627 15.4218 24.4073 9.18742 20.4678 5.39575C16.3095 1.31242 9.6342 1.31242 5.43936 5.39575C1.39043 9.33325 1.281 15.8228 5.2205 19.8697L5.43936 20.0885C9.23295 23.7343 15.1422 24.1353 19.3735 20.9999L23.7507 25.302C23.9331 25.5208 24.2249 25.6301 24.5168 25.6666C24.8086 25.6666 25.1004 25.5572 25.3192 25.3385C25.757 24.9374 25.7934 24.2447 25.3557 23.8072ZM4.56392 12.7239C4.63687 8.16659 8.39399 4.52075 12.9901 4.55721C17.5497 4.52075 21.2703 8.16659 21.3797 12.7239C21.3068 17.2812 17.5497 20.927 12.9901 20.8905C8.39399 20.9635 4.63687 17.3176 4.56392 12.7239Z" fill="#222222"/>
</svg>
