<svg width="41" height="34" viewBox="0 0 41 34" fill="none" xmlns="http://www.w3.org/2000/svg">
<path opacity="0.6" d="M10.9717 0.384766C12.2419 0.384766 13.4184 0.544595 14.498 0.869141H14.499C15.5997 1.1815 16.5856 1.68175 17.4531 2.36914C18.3403 3.06083 19.0869 3.95812 19.6934 5.05273H19.6924C20.3144 6.13529 20.7821 7.43521 21.1016 8.94531L21.2139 9.51953C21.459 10.8854 21.5811 12.4328 21.5811 14.1592V19.25C21.581 21.7105 21.3354 23.8283 20.8389 25.5967L20.8398 25.5977C20.3584 27.3482 19.6522 28.7924 18.71 29.9141C17.7722 31.0304 16.644 31.8535 15.3281 32.377L15.3271 32.376C14.035 32.8956 12.5959 33.1523 11.0146 33.1523C9.75536 33.1523 8.57701 32.9914 7.48242 32.666H7.48145C6.39436 32.3384 5.40917 31.8239 4.5293 31.123C3.64509 30.4187 2.89443 29.5161 2.27441 28.4238L2.27051 28.418C1.66492 27.3101 1.1982 25.9981 0.864258 24.4883L0.863281 24.4844C0.542722 22.969 0.384774 21.2231 0.384766 19.25V14.1592C0.384766 11.6843 0.628325 9.57837 1.12598 7.85059L1.32227 7.21387C1.80397 5.76217 2.45374 4.54668 3.27832 3.57812C4.21564 2.46293 5.33698 1.64678 6.63965 1.1377H6.64062C7.9456 0.633502 9.39103 0.384774 10.9717 0.384766ZM40.0625 0.705078V32.7246H34.1387V7.74316L27.0098 10.1592L26.502 10.3311V5.26953L26.7549 5.17773L38.9258 0.728516L38.9893 0.705078H40.0625ZM10.9717 5.23828C10.2247 5.23829 9.5719 5.38455 9.00488 5.66797L8.99805 5.67188C8.44449 5.93615 7.96897 6.36788 7.57422 6.98633C7.17955 7.60464 6.86484 8.44019 6.64258 9.50977L6.6416 9.50879C6.43442 10.5599 6.32911 11.8515 6.3291 13.3887V19.9775C6.32912 21.2186 6.39996 22.3044 6.53906 23.2363C6.6781 24.1677 6.88495 24.9542 7.1543 25.6016L7.25879 25.8359C7.50698 26.3678 7.79169 26.8078 8.11035 27.1611C8.48499 27.5468 8.90615 27.8255 9.375 28.0029C9.86907 28.1845 10.4145 28.2773 11.0146 28.2773C11.7771 28.2773 12.4368 28.1307 13.0029 27.8477C13.558 27.5701 14.0356 27.1238 14.4316 26.4902C14.8273 25.8431 15.1348 24.9859 15.3428 23.9043C15.5507 22.823 15.6572 21.5156 15.6572 19.9775V13.3887C15.6572 12.162 15.5863 11.0912 15.4473 10.1738V10.1729C15.308 9.23995 15.101 8.46905 14.833 7.85254L14.8291 7.84277C14.5731 7.20956 14.2562 6.71423 13.8867 6.34473L13.8828 6.34082C13.5082 5.95329 13.0876 5.68093 12.6201 5.5166L12.6113 5.5127C12.1336 5.33194 11.5886 5.23828 10.9717 5.23828Z" stroke="#222222" stroke-width="0.768552"/>
</svg>
