<svg width="48" height="44" viewBox="0 0 48 44" fill="none" xmlns="http://www.w3.org/2000/svg">
<path opacity="0.6" d="M11.2031 5.61621C12.4734 5.61621 13.6498 5.77604 14.7295 6.10059H14.7305C15.8312 6.41295 16.817 6.91319 17.6846 7.60059C18.5717 8.29228 19.3183 9.18956 19.9248 10.2842H19.9238C20.5458 11.3667 21.0135 12.6667 21.333 14.1768L21.4453 14.751C21.6905 16.1168 21.8125 17.6643 21.8125 19.3906V24.4814C21.8125 26.942 21.5668 29.0597 21.0703 30.8281L21.0713 30.8291C20.5899 32.5797 19.8836 34.0238 18.9414 35.1455C18.0037 36.2618 16.8754 37.085 15.5596 37.6084L15.5586 37.6074C14.2664 38.127 12.8273 38.3838 11.2461 38.3838C9.9868 38.3838 8.80846 38.2229 7.71387 37.8975H7.71289C6.6258 37.5698 5.64062 37.0553 4.76074 36.3545C3.87653 35.6501 3.12587 34.7476 2.50586 33.6553L2.50195 33.6494C1.89637 32.5416 1.42965 31.2296 1.0957 29.7197L1.09473 29.7158C0.774167 28.2004 0.61622 26.4545 0.616211 24.4814V19.3906C0.616211 16.9157 0.859771 14.8098 1.35742 13.082L1.55371 12.4453C2.03542 10.9936 2.68519 9.77813 3.50977 8.80957C4.44709 7.69438 5.56843 6.87823 6.87109 6.36914H6.87207C8.17704 5.86495 9.62247 5.61622 11.2031 5.61621ZM35.7383 5.61621C37.8618 5.61621 39.6907 5.9723 41.21 6.70215C42.7257 7.43042 43.8899 8.4704 44.6875 9.82324C45.4991 11.1759 45.8984 12.7658 45.8984 14.5771C45.8984 15.589 45.7341 16.5923 45.4082 17.585C45.0842 18.5716 44.6219 19.5543 44.0234 20.5322C43.4428 21.4902 42.7549 22.4527 41.9609 23.4199L41.959 23.4229C41.1679 24.3722 40.2978 25.3346 39.3506 26.3105L33.2051 33.0811H47.0957V37.9561H25.4502V33.8936L25.5518 33.7832L35.6904 22.7246C36.7954 21.4778 37.6604 20.4072 38.29 19.5117C38.9197 18.6162 39.3488 17.8276 39.5898 17.1445L39.5908 17.1406H39.5918C39.8492 16.436 39.9746 15.7605 39.9746 15.1123C39.9746 14.1771 39.7984 13.3753 39.459 12.6963L39.4551 12.6885C39.1299 11.999 38.6521 11.464 38.0186 11.0762L38.0137 11.0732V11.0723C37.3882 10.6768 36.6141 10.4697 35.6738 10.4697C34.5744 10.4698 33.6808 10.707 32.9717 11.1582C32.2533 11.6153 31.7098 12.2483 31.3398 13.0674L31.3389 13.0693C30.9664 13.8807 30.7754 14.8226 30.7754 15.9033V16.2881H24.8516V15.9033C24.8516 14.1483 25.2274 12.5279 25.9834 11.0488L26.1396 10.7559C27.0027 9.17885 28.253 7.93024 29.8809 7.0127C31.5188 6.07514 33.4768 5.61622 35.7383 5.61621ZM11.2031 10.4697C10.4561 10.4697 9.80334 10.616 9.23633 10.8994L9.22949 10.9033C8.67594 11.1676 8.20042 11.5993 7.80566 12.2178C7.411 12.8361 7.09629 13.6716 6.87402 14.7412L6.87305 14.7402C6.66587 15.7913 6.56056 17.083 6.56055 18.6201V25.209C6.56056 26.45 6.63141 27.5358 6.77051 28.4678C6.90954 29.3991 7.11639 30.1857 7.38574 30.833L7.49023 31.0674C7.73843 31.5992 8.02314 32.0392 8.3418 32.3926C8.71643 32.7782 9.13759 33.057 9.60645 33.2344C10.1005 33.416 10.646 33.5088 11.2461 33.5088C12.0086 33.5088 12.6682 33.3621 13.2344 33.0791C13.7894 32.8016 14.267 32.3553 14.6631 31.7217C15.0587 31.0745 15.3662 30.2173 15.5742 29.1357C15.7821 28.0545 15.8887 26.747 15.8887 25.209V18.6201C15.8887 17.3934 15.8177 16.3226 15.6787 15.4053V15.4043C15.5395 14.4714 15.3325 13.7005 15.0645 13.084L15.0605 13.0742C14.8045 12.441 14.4877 11.9457 14.1182 11.5762L14.1143 11.5723C13.7396 11.1847 13.319 10.9124 12.8516 10.748L12.8428 10.7441C12.3651 10.5634 11.8201 10.4697 11.2031 10.4697Z" stroke="#222222" stroke-width="0.768552"/>
</svg>
