<svg width="48" height="44" viewBox="0 0 48 44" fill="none" xmlns="http://www.w3.org/2000/svg">
<path opacity="0.6" d="M11.2031 5.61621C12.4734 5.61621 13.6498 5.77604 14.7295 6.10059H14.7305C15.8312 6.41295 16.817 6.91319 17.6846 7.60059C18.5717 8.29228 19.3183 9.18956 19.9248 10.2842H19.9238C20.5458 11.3667 21.0135 12.6667 21.333 14.1768L21.4453 14.751C21.6905 16.1168 21.8125 17.6643 21.8125 19.3906V24.4814C21.8125 26.942 21.5668 29.0597 21.0703 30.8281L21.0713 30.8291C20.5899 32.5797 19.8836 34.0238 18.9414 35.1455C18.0037 36.2618 16.8754 37.085 15.5596 37.6084L15.5586 37.6074C14.2664 38.127 12.8273 38.3838 11.2461 38.3838C9.9868 38.3838 8.80846 38.2229 7.71387 37.8975H7.71289C6.6258 37.5698 5.64061 37.0553 4.76074 36.3545C3.87653 35.6501 3.12587 34.7476 2.50586 33.6553L2.50195 33.6494C1.89637 32.5416 1.42965 31.2296 1.0957 29.7197L1.09473 29.7158C0.774167 28.2004 0.61622 26.4545 0.616211 24.4814V19.3906C0.616211 16.9157 0.859771 14.8098 1.35742 13.082L1.55371 12.4453C2.03542 10.9936 2.68519 9.77813 3.50977 8.80957C4.44709 7.69438 5.56843 6.87823 6.87109 6.36914H6.87207C8.17704 5.86495 9.62247 5.61622 11.2031 5.61621ZM35.418 5.61621C37.4707 5.61626 39.2805 5.95761 40.8369 6.6543L40.8359 6.65527C42.4115 7.33979 43.648 8.37119 44.5322 9.75C45.4219 11.1373 45.8554 12.8391 45.8555 14.834C45.8555 15.7797 45.6333 16.7326 45.2002 17.6885C44.7635 18.6521 44.1184 19.5269 43.2725 20.3135L43.2705 20.3164C42.7692 20.7737 42.1963 21.1761 41.5576 21.5312C42.4507 21.9244 43.2172 22.413 43.8506 23.002H43.8496C44.7017 23.7799 45.3292 24.6757 45.7227 25.6895H45.7217C46.1247 26.6911 46.3262 27.7509 46.3262 28.8662C46.3262 30.3668 46.0527 31.7198 45.499 32.918C44.9614 34.0978 44.1913 35.1013 43.1904 35.9229C42.1937 36.741 41.0293 37.3539 39.7031 37.7666L39.7041 37.7676C38.3933 38.18 36.9701 38.3838 35.4385 38.3838C34.0623 38.3838 32.7415 38.1936 31.4775 37.8115C30.2106 37.4285 29.0711 36.8602 28.0635 36.1045L28.0615 36.1025L28.2949 35.7969L28.0615 36.1016C27.0465 35.3253 26.2396 34.3621 25.6436 33.2148L25.6406 33.209C25.0537 32.0351 24.7657 30.6914 24.7656 29.1875V28.8027H30.6895V29.1875C30.6895 30.0511 30.888 30.7996 31.2744 31.4453C31.6763 32.079 32.2334 32.5811 32.957 32.9502H32.958C33.6957 33.3191 34.5484 33.5088 35.5244 33.5088C36.5633 33.5088 37.4368 33.3244 38.1572 32.9707C38.8714 32.6201 39.4112 32.1051 39.7861 31.4199L39.7891 31.415C40.1774 30.7289 40.3809 29.8846 40.3809 28.8662C40.3808 27.7009 40.1547 26.7938 39.7334 26.1172C39.3079 25.4339 38.7019 24.9293 37.9023 24.6016L37.8975 24.5996C37.0858 24.2537 36.1128 24.0743 34.9688 24.0742H31.5039V19.2842H34.9688C36.1249 19.2841 37.0497 19.084 37.7627 18.708L37.7646 18.707C38.5004 18.326 39.0319 17.8088 39.377 17.1572C39.7287 16.4929 39.9102 15.7216 39.9102 14.834C39.9101 13.8958 39.7398 13.117 39.417 12.4844L39.4131 12.4766C39.1069 11.8386 38.6376 11.3485 37.9941 11.001L37.9912 11C37.366 10.6555 36.5441 10.4697 35.5029 10.4697C34.6439 10.4697 33.8763 10.6439 33.1934 10.9854L33.1904 10.9863C32.5253 11.3124 32.0024 11.7791 31.6133 12.3887L31.6113 12.3916C31.2306 12.9754 31.0312 13.6844 31.0312 14.5352V14.9189H25.0869V14.5352C25.0869 12.8095 25.5421 11.2645 26.458 9.91309C27.3684 8.5699 28.6051 7.52106 30.1582 6.7666C31.7282 5.99664 33.4843 5.61621 35.418 5.61621ZM11.2031 10.4697C10.4561 10.4697 9.80334 10.616 9.23633 10.8994L9.22949 10.9033C8.67594 11.1676 8.20042 11.5993 7.80566 12.2178C7.411 12.8361 7.09629 13.6716 6.87402 14.7412L6.87305 14.7402C6.66587 15.7913 6.56056 17.083 6.56055 18.6201V25.209C6.56056 26.45 6.63141 27.5358 6.77051 28.4678C6.90954 29.3991 7.11639 30.1856 7.38574 30.833L7.49023 31.0674C7.73819 31.5987 8.02254 32.0384 8.34082 32.3916C8.7157 32.7778 9.13719 33.0568 9.60645 33.2344C10.1005 33.416 10.646 33.5088 11.2461 33.5088C12.0086 33.5088 12.6682 33.3621 13.2344 33.0791C13.7894 32.8016 14.267 32.3553 14.6631 31.7217C15.0587 31.0745 15.3662 30.2173 15.5742 29.1357C15.7821 28.0545 15.8887 26.747 15.8887 25.209V18.6201C15.8887 17.3934 15.8177 16.3226 15.6787 15.4053V15.4043C15.5395 14.4714 15.3325 13.7005 15.0645 13.084L15.0605 13.0742C14.8045 12.441 14.4877 11.9457 14.1182 11.5762L14.1143 11.5723C13.7396 11.1847 13.319 10.9124 12.8516 10.748L12.8428 10.7441C12.3651 10.5634 11.8201 10.4697 11.2031 10.4697Z" stroke="#222222" stroke-width="0.768552"/>
</svg>
