<svg width="24" height="24" viewBox="0 0 24 24" fill="none" xmlns="http://www.w3.org/2000/svg">
<path d="M11.169 2.43182C11.5685 1.83298 12.4163 1.83292 12.8155 2.43182L15.961 6.97479C16.1106 7.17417 16.3104 7.32421 16.5098 7.3742L21.8018 8.92108C22.4506 9.12093 22.7 9.96969 22.3008 10.5187L18.9561 14.8615C18.955 14.8626 18.9533 14.8633 18.9522 14.8644C18.8045 15.0632 18.755 15.2625 18.755 15.5109L18.9053 21.0021C18.905 21.7006 18.2061 22.1992 17.5577 21.9504L12.3653 20.1027C12.1917 20.0334 12.0424 20.0131 11.9005 20.0402C11.7839 20.0827 11.7224 20.1015 11.7178 20.1027L6.52546 21.9504C5.82686 22.1993 5.17794 21.7007 5.1778 21.0021L5.27839 15.4601C5.27833 15.2109 5.22777 15.0112 5.07819 14.8117L1.73347 10.4689C1.28433 9.9199 1.58384 9.12097 2.23249 8.92108L7.52448 7.42401C7.77388 7.37423 7.9239 7.22421 8.07331 7.02459L11.169 2.43182Z" fill="#F4B937"/>
</svg>
