<svg width="18" height="18" viewBox="0 0 18 18" fill="none" xmlns="http://www.w3.org/2000/svg">
<path d="M9.27381 15.0772L13.1676 16.4627C13.6541 16.6496 14.1784 16.2754 14.1784 15.7512L14.066 11.6329C14.066 11.4456 14.1036 11.2959 14.2159 11.146C10.8462 14.5158 8.78711 15.0772 8.78711 15.0772C8.93682 15.0024 9.08651 15.0024 9.27381 15.0772Z" fill="#F5D484"/>
<path d="M16.3513 6.69091L12.3826 5.5304C12.2329 5.49289 12.083 5.38042 11.9708 5.23073L9.61193 1.82371C9.31253 1.37452 8.67616 1.37452 8.37657 1.82371L6.05515 5.26824C5.94306 5.41802 5.83059 5.53038 5.64348 5.56772L1.67484 6.69091C1.18814 6.8407 0.963575 7.43969 1.30059 7.85154L3.80895 11.1089C3.9212 11.2586 3.95864 11.4083 3.95864 11.5954L3.88378 15.7514C3.88378 16.2755 4.37048 16.6498 4.8946 16.4628L8.78841 15.0774C8.78841 15.0774 10.8477 14.5158 14.2172 11.1461L16.7257 7.88903C17.0251 7.4772 16.838 6.8407 16.3513 6.69091Z" fill="#F4B937"/>
<path d="M9.08731 10.7342L10.2104 11.146C10.3601 11.1836 10.4726 11.1088 10.4726 10.9589L10.4349 9.76075C10.4349 9.72343 10.4349 9.68592 10.4726 9.64859L11.2214 8.6751C11.2963 8.56283 11.2586 8.41294 11.1089 8.37561L9.94842 8.03871C9.9108 8.03871 9.87358 8.00118 9.83597 7.96385L9.16216 6.95292C9.08731 6.84056 8.9 6.84056 8.82515 6.95292L8.15112 7.96385C8.1137 8.00118 8.07629 8.03871 8.03887 8.03871L6.87836 8.37561C6.72867 8.41294 6.69104 8.56283 6.76589 8.6751L7.51493 9.64859C7.55217 9.68592 7.55217 9.72343 7.55217 9.76075L7.51493 10.9589C7.51493 11.1088 7.66462 11.1836 7.77671 11.146L8.9 10.7342H9.08731Z" fill="white"/>
</svg>
