<svg width="24" height="24" viewBox="0 0 24 24" fill="none" xmlns="http://www.w3.org/2000/svg">
<g clip-path="url(#clip0_4468_4808)">
<path d="M18.666 7.99984H15.9993V5.33317C15.9993 4.93317 15.7327 4.6665 15.3327 4.6665H5.33268C4.99935 4.6665 4.66602 4.99984 4.66602 5.33317V15.3332C4.66602 15.7332 4.93268 15.9998 5.33268 15.9998H7.99935V18.6665C7.99935 19.0665 8.26602 19.3332 8.66602 19.3332H18.666C19.066 19.3332 19.3327 19.0665 19.3327 18.6665V8.6665C19.3327 8.33317 19.066 7.99984 18.666 7.99984ZM5.99935 14.6665V5.99984H14.666V7.99984H8.66602C8.33268 7.99984 7.99935 8.33317 7.99935 8.6665V14.6665H5.99935ZM17.9993 17.9998H9.33268V9.33317H17.9993V17.9998Z" fill="#999999"/>
</g>
<defs>
<clipPath id="clip0_4468_4808">
<rect width="16" height="16" fill="white" transform="translate(4 4)"/>
</clipPath>
</defs>
</svg>
